<svg width="48" height="47" viewBox="0 0 48 47" fill="none" xmlns="http://www.w3.org/2000/svg">
<g clip-path="url(#clip0_2033_2)">
<path d="M10.8901 10.7297L12.7831 9.4906C13.6447 8.92609 14.6822 8.69441 15.7021 8.83882C16.722 8.98322 17.6545 9.49384 18.3255 10.2754L20.4674 12.77C21.0445 13.442 21.3967 14.2779 21.4746 15.1602C21.5525 16.0426 21.3522 16.9272 20.9018 17.69L19.2643 20.4633C19.2452 20.4981 19.2315 20.5357 19.2237 20.5746C19.1297 21.1276 19.8698 22.312 21.5707 23.9299C23.4886 25.7532 24.725 26.3326 25.1398 26.0646L27.8371 24.2819C28.576 23.7943 29.4489 23.55 30.3335 23.5834C31.2182 23.6168 32.0702 23.9262 32.7702 24.4682L35.3587 26.4705C36.1713 27.0992 36.7282 28.0015 36.9257 29.0098C37.1232 30.0182 36.948 31.0639 36.4325 31.9528L35.2932 33.9151C34.8972 34.598 34.3418 35.1751 33.6744 35.5969C33.0071 36.0187 32.2476 36.2728 31.4608 36.3376C26.7883 36.7207 21.7981 34.3401 16.4794 29.2835C11.1582 24.2234 8.52734 19.3531 8.68081 14.6638C8.70647 13.8787 8.92073 13.1113 9.30547 12.4265C9.69022 11.7417 10.2329 11.16 10.8901 10.7297ZM11.965 12.3663C11.5707 12.6245 11.2443 12.9737 11.0134 13.3845C10.7825 13.7954 10.6539 14.2558 10.6384 14.7268C10.5058 18.7678 12.8736 23.1524 17.8294 27.8645C22.7816 32.5735 27.2759 34.7167 31.3023 34.3855C31.7744 34.3465 32.2301 34.1939 32.6304 33.9407C33.0307 33.6875 33.3638 33.3412 33.6013 32.9313L34.7398 30.9706C35.0175 30.4921 35.112 29.9289 35.0058 29.3859C34.8996 28.8429 34.5998 28.3569 34.1623 28.0183L31.5734 26.0148C31.1966 25.723 30.7379 25.5564 30.2616 25.5384C29.7854 25.5204 29.3154 25.6518 28.9176 25.9142L26.2135 27.7016C24.7133 28.6764 22.7618 27.7625 20.2227 25.347C18.0726 23.3038 17.0541 21.6695 17.2955 20.2471C17.3426 19.9701 17.4374 19.7104 17.5799 19.4678L19.2173 16.6945C19.46 16.2837 19.5679 15.8073 19.526 15.3321C19.4841 14.8569 19.2944 14.4067 18.9836 14.0448L16.8408 11.5518C16.4794 11.1308 15.9772 10.8558 15.428 10.778C14.8787 10.7003 14.3199 10.8251 13.8559 11.1292L11.965 12.3663Z" fill="#1A2D41"/>
</g>
<path fill-rule="evenodd" clip-rule="evenodd" d="M38.356 13.5566C38.3562 14.6592 38.0771 15.7439 37.5447 16.7094C37.0123 17.6749 36.2438 18.4897 35.3112 19.0778C34.3786 19.6659 33.3121 20.0081 32.2114 20.0724C31.1107 20.1367 30.0116 19.9211 29.0168 19.4456C28.7268 19.2996 28.3942 19.262 28.0788 19.3396L27.0781 19.6079C26.8983 19.6559 26.7092 19.6557 26.5296 19.6074C26.3499 19.5592 26.1862 19.4645 26.0547 19.3329C25.9232 19.2014 25.8286 19.0376 25.7805 18.8579C25.7323 18.6782 25.7323 18.4891 25.7804 18.3094L26.0479 17.3086C26.1255 16.9933 26.0879 16.6606 25.9419 16.3706C25.5202 15.4869 25.3027 14.5197 25.3057 13.5405C25.3087 12.5614 25.5319 11.5955 25.959 10.7144C26.3861 9.83325 27.0059 9.05955 27.7727 8.4506C28.5394 7.84164 29.4334 7.41305 30.3883 7.1966C31.3432 6.98014 32.3346 6.98136 33.289 7.20018C34.2434 7.41899 35.1363 7.84979 35.9015 8.46063C36.6668 9.07147 37.2847 9.84671 37.7096 10.7289C38.1345 11.611 38.3554 12.5775 38.356 13.5566ZM28.9761 14.3723C29.1924 14.3723 29.3998 14.2864 29.5528 14.1334C29.7058 13.9804 29.7917 13.773 29.7917 13.5566C29.7917 13.3403 29.7058 13.1329 29.5528 12.9799C29.3998 12.8269 29.1924 12.741 28.9761 12.741C28.7597 12.741 28.5523 12.8269 28.3993 12.9799C28.2463 13.1329 28.1604 13.3403 28.1604 13.5566C28.1604 13.773 28.2463 13.9804 28.3993 14.1334C28.5523 14.2864 28.7597 14.3723 28.9761 14.3723ZM31.8308 14.3723C32.0471 14.3723 32.2546 14.2864 32.4076 14.1334C32.5605 13.9804 32.6465 13.773 32.6465 13.5566C32.6465 13.3403 32.5605 13.1329 32.4076 12.9799C32.2546 12.8269 32.0471 12.741 31.8308 12.741C31.6145 12.741 31.407 12.8269 31.2541 12.9799C31.1011 13.1329 31.0152 13.3403 31.0152 13.5566C31.0152 13.773 31.1011 13.9804 31.2541 14.1334C31.407 14.2864 31.6145 14.3723 31.8308 14.3723ZM34.6856 14.3723C34.9019 14.3723 35.1093 14.2864 35.2623 14.1334C35.4153 13.9804 35.5012 13.773 35.5012 13.5566C35.5012 13.3403 35.4153 13.1329 35.2623 12.9799C35.1093 12.8269 34.9019 12.741 34.6856 12.741C34.4692 12.741 34.2618 12.8269 34.1088 12.9799C33.9558 13.1329 33.8699 13.3403 33.8699 13.5566C33.8699 13.773 33.9558 13.9804 34.1088 14.1334C34.2618 14.2864 34.4692 14.3723 34.6856 14.3723Z" fill="#BA7242"/>
<defs>
<clipPath id="clip0_2033_2">
<rect width="36.259" height="38.9326" fill="white" transform="matrix(0.966547 -0.25649 0.311923 0.950108 0 9.30078)"/>
</clipPath>
</defs>
</svg>
