<svg width="32" height="42" viewBox="0 0 32 42" fill="none" xmlns="http://www.w3.org/2000/svg">
<g clip-path="url(#clip0_2033_3)">
<path d="M29.9565 11.806L8.14618 29.982M13.2845 35.1432L18.2627 40.1032C18.5685 40.4165 18.9507 40.6446 19.3716 40.7649C19.7926 40.8852 20.2376 40.8934 20.6627 40.7889C21.0901 40.6891 21.4846 40.4811 21.8084 40.1849C22.1323 39.8887 22.3745 39.5143 22.5119 39.0975L30.6856 14.5946C30.8579 14.1354 30.8944 13.6364 30.7907 13.1571C30.6871 12.6777 30.4477 12.2383 30.1012 11.8913C29.7547 11.5443 29.3156 11.3043 28.8364 11.2001C28.3572 11.0958 27.8582 11.1316 27.3988 11.3032L2.89589 19.4792C2.46476 19.6264 2.08071 19.8859 1.78338 20.2311C1.48604 20.5762 1.2862 20.9944 1.20446 21.4426C1.12048 21.8506 1.13918 22.273 1.25887 22.672C1.37856 23.071 1.59549 23.4339 1.89018 23.7283L8.14618 29.9843L7.94046 37.9066L13.2845 35.1432Z" stroke="#1A2D41" stroke-width="2.28571" stroke-linecap="round" stroke-linejoin="round"/>
</g>
<g clip-path="url(#clip1_2033_3)">
<mask id="mask0_2033_3" style="mask-type:luminance" maskUnits="userSpaceOnUse" x="6" y="0" width="19" height="19">
<path d="M15.5002 17.4163C16.54 17.4176 17.5698 17.2134 18.5305 16.8155C19.4911 16.4176 20.3637 15.8337 21.098 15.0976C21.8342 14.3632 22.4181 13.4907 22.816 12.53C23.2139 11.5693 23.4181 10.5395 23.4168 9.49968C23.4181 8.45986 23.2139 7.43004 22.816 6.46937C22.4181 5.50871 21.8342 4.63614 21.098 3.90181C20.3637 3.16562 19.4911 2.58179 18.5305 2.18386C17.5698 1.78592 16.54 1.58173 15.5002 1.58301C14.4604 1.58173 13.4305 1.78592 12.4699 2.18386C11.5092 2.58179 10.6366 3.16562 9.90229 3.90181C9.16611 4.63614 8.58228 5.50871 8.18434 6.46937C7.78641 7.43004 7.58222 8.45986 7.5835 9.49968C7.58222 10.5395 7.78641 11.5693 8.18434 12.53C8.58228 13.4907 9.16611 14.3632 9.90229 15.0976C10.6366 15.8337 11.5092 16.4176 12.4699 16.8155C13.4305 17.2134 14.4604 17.4176 15.5002 17.4163Z" fill="white" stroke="white" stroke-width="1.58333" stroke-linejoin="round"/>
<path d="M12.3335 9.5L14.7085 11.875L19.4585 7.125" stroke="black" stroke-width="1.58333" stroke-linecap="round" stroke-linejoin="round"/>
</mask>
<g mask="url(#mask0_2033_3)">
<path d="M6 0H25V19H6V0Z" fill="#BA7242"/>
</g>
</g>
<defs>
<clipPath id="clip0_2033_3">
<rect width="32" height="32" fill="white" transform="translate(0 10)"/>
</clipPath>
<clipPath id="clip1_2033_3">
<rect width="19" height="19" fill="white" transform="translate(6)"/>
</clipPath>
</defs>
</svg>
