<svg width="29" height="29" viewBox="0 0 29 29" fill="none" xmlns="http://www.w3.org/2000/svg">
<g clip-path="url(#clip0_2012_524)">
<path d="M1.8125 14.5C1.8125 17.8649 3.14922 21.0921 5.52858 23.4714C7.90795 25.8508 11.1351 27.1875 14.5 27.1875C17.8649 27.1875 21.0921 25.8508 23.4714 23.4714C25.8508 21.0921 27.1875 17.8649 27.1875 14.5C27.1875 11.1351 25.8508 7.90795 23.4714 5.52858C21.0921 3.14922 17.8649 1.8125 14.5 1.8125C11.1351 1.8125 7.90795 3.14922 5.52858 5.52858C3.14922 7.90795 1.8125 11.1351 1.8125 14.5Z" stroke="#1A2D41" stroke-width="1.8125" stroke-linejoin="round"/>
<path d="M9.0625 14.5C9.0625 11.1351 9.63538 7.90795 10.6551 5.52858C11.6748 3.14922 13.0579 1.8125 14.5 1.8125C15.9421 1.8125 17.3252 3.14922 18.3449 5.52858C19.3646 7.90795 19.9375 11.1351 19.9375 14.5C19.9375 17.8649 19.3646 21.0921 18.3449 23.4714C17.3252 25.8508 15.9421 27.1875 14.5 27.1875C13.0579 27.1875 11.6748 25.8508 10.6551 23.4714C9.63538 21.0921 9.0625 17.8649 9.0625 14.5Z" stroke="#1A2D41" stroke-width="1.8125" stroke-linejoin="round"/>
<path d="M2.71875 18.7288H26.2813M2.71875 10.2705H26.2813" stroke="#1A2D41" stroke-width="1.8125" stroke-linecap="round"/>
</g>
<defs>
<clipPath id="clip0_2012_524">
<rect width="29" height="29" fill="white"/>
</clipPath>
</defs>
</svg>
