<svg width="625" height="413" viewBox="0 0 625 413" fill="none" xmlns="http://www.w3.org/2000/svg">
<g style="mix-blend-mode:color-burn" filter="url(#filter0_d_947_2)">
<path d="M149.026 328.034C134.035 328.034 120.164 324.566 107.411 317.63C94.6583 310.471 84.3666 300.515 76.5359 287.762C68.7052 274.785 64.7899 259.348 64.7899 241.449C64.7899 229.367 66.6916 217.51 70.4951 205.875C74.5223 194.241 79.5563 183.055 85.5971 172.315C91.8616 161.576 98.5737 151.508 105.733 142.111C113.116 132.714 120.276 124.324 127.212 116.941C134.147 109.334 140.188 103.07 145.334 98.1476H204.064C197.352 104.636 189.969 111.572 181.914 118.955C174.084 126.338 166.253 134.057 158.422 142.111C150.592 149.942 143.432 157.884 136.944 165.939C130.679 173.993 125.645 182.048 121.842 190.102C127.212 184.956 133.029 180.817 139.293 177.685C145.558 174.553 152.27 172.987 159.429 172.987C173.077 172.987 185.27 176.119 196.01 182.383C206.749 188.648 215.251 197.262 221.515 208.225C227.78 219.188 230.912 231.493 230.912 245.141C230.912 256.327 228.899 266.955 224.871 277.023C220.844 286.867 215.139 295.704 207.756 303.535C200.596 311.142 191.982 317.183 181.914 321.658C171.846 325.909 160.884 328.034 149.026 328.034ZM148.354 286.755C155.066 286.755 161.107 285.077 166.477 281.721C171.846 278.365 176.209 273.89 179.565 268.297C182.921 262.48 184.599 255.992 184.599 248.832C184.599 241.897 182.921 235.856 179.565 230.71C176.209 225.34 171.846 221.089 166.477 217.957C161.107 214.825 155.066 213.259 148.354 213.259C141.866 213.259 135.713 214.825 129.896 217.957C124.303 221.089 119.828 225.34 116.472 230.71C113.116 235.856 111.438 241.897 111.438 248.832C111.438 255.992 113.116 262.48 116.472 268.297C119.828 273.89 124.303 278.365 129.896 281.721C135.713 285.077 141.866 286.755 148.354 286.755Z" fill="#121633"/>
</g>
<g style="mix-blend-mode:color-burn">
<path d="M124.852 97.8685C123.192 99.6902 121.386 101.062 119.435 101.983C117.455 102.878 115.456 103.359 113.438 103.425C111.391 103.465 109.409 103.141 107.495 102.455C105.577 101.713 103.838 100.631 102.276 99.2085C100.107 97.2325 98.5614 94.9505 97.638 92.3628C96.7411 89.7461 96.5744 87.0539 97.138 84.2863C97.6991 81.4633 99.0994 78.8229 101.339 76.3651C103.605 73.8783 106.091 72.2536 108.797 71.4909C111.474 70.7019 114.13 70.6615 116.766 71.3697C119.4 72.0227 121.743 73.2845 123.796 75.1551C124.143 75.4713 124.491 75.8151 124.841 76.1865C125.161 76.5316 125.424 76.824 125.629 77.0637L109.623 94.6302C110.885 95.5685 112.2 96.1581 113.568 96.3991C114.963 96.6112 116.286 96.4943 117.54 96.0484C118.79 95.5472 119.876 94.7906 120.799 93.7785C121.852 92.6219 122.566 91.2872 122.938 89.7746C123.309 88.2066 123.202 86.8131 122.62 85.5941L128.552 81.8708C129.209 83.4741 129.51 85.2046 129.458 87.0624C129.433 88.8912 129.048 90.7367 128.303 92.5989C127.53 94.4348 126.38 96.1913 124.852 97.8685ZM105.818 91.4011L116.646 79.5166C115.384 78.5783 114.084 78.0019 112.745 77.7872C111.403 77.5173 110.106 77.6053 108.852 78.0512C107.57 78.4708 106.442 79.2155 105.467 80.2854C104.519 81.3264 103.895 82.5045 103.596 83.8199C103.295 85.0801 103.327 86.38 103.694 87.7199C104.059 89.0044 104.766 90.2315 105.818 91.4011Z" fill="#121633"/>
<path d="M96.7951 92.2563C95.1981 94.0293 94.12 95.9277 93.5609 97.9512C92.9728 99.9486 93.0433 101.828 93.7724 103.591L107.594 116.04L102.331 121.882L79.4848 101.304L84.3151 95.9413L89.1984 100.34C88.3618 98.112 88.0559 95.9675 88.2806 93.906C88.5053 91.8445 89.2024 90.0769 90.3719 88.6031C90.6599 88.2834 90.8824 88.0363 91.0395 87.8619C91.1966 87.6875 91.342 87.5552 91.4758 87.4652L96.7951 92.2563Z" fill="#121633"/>
<path d="M51.443 118.86L56.5743 112.445L98.6757 126.508L93.471 133.015L82.9411 129.552L73.8513 140.916L79.5798 150.382L74.3752 156.889L51.443 118.86ZM77.5799 127.142L60.5615 120.894L70.2494 136.307L77.5799 127.142Z" fill="#121633"/>
<path d="M62.489 179.162C61.3576 181.352 59.969 183.144 58.3233 184.539C56.6428 185.917 54.8363 186.899 52.9039 187.485C50.9368 188.054 48.9395 188.255 46.9122 188.088C44.868 187.868 42.9076 187.273 41.0309 186.304C38.4244 184.957 36.3402 183.153 34.7781 180.893C33.234 178.598 32.3757 176.04 32.2033 173.221C32.0141 170.349 32.6828 167.436 34.2093 164.482C35.7538 161.494 37.7341 159.28 40.1502 157.843C42.5316 156.387 45.087 155.66 47.8164 155.662C50.529 155.61 53.1191 156.222 55.5865 157.497C56.0036 157.713 56.429 157.955 56.8629 158.223C57.2619 158.473 57.5915 158.688 57.8516 158.866L46.9414 179.979C48.4034 180.558 49.8263 180.787 51.2101 180.665C52.6119 180.509 53.8602 180.053 54.955 179.298C56.0331 178.49 56.8864 177.478 57.5149 176.262C58.2333 174.871 58.5766 173.398 58.5449 171.84C58.4963 170.23 58.0327 168.911 57.1541 167.885L61.9202 162.752C62.9691 164.131 63.709 165.724 64.1398 167.532C64.5886 169.305 64.6948 171.187 64.4583 173.178C64.1871 175.152 63.5306 177.146 62.489 179.162ZM42.4296 177.845L49.8107 163.562C48.3488 162.982 46.9433 162.762 45.5942 162.902C44.2283 162.989 42.998 163.41 41.9031 164.165C40.7736 164.902 39.8765 165.914 39.212 167.2C38.5655 168.451 38.2683 169.75 38.3203 171.098C38.3555 172.393 38.7239 173.641 39.4252 174.84C40.1098 175.986 41.1113 176.988 42.4296 177.845Z" fill="#121633"/>
<path d="M4.40702 225.989L6.1404 218.681L20.6547 217.238L8.34775 209.374L10.0676 202.123L26.8572 213.463L40.9795 211.385L12.242 192.447L14.2733 183.883L50.9649 209.713L49.3534 216.507L30.6463 219.608L45.9814 230.724L44.3699 237.518L0 244.061L2.00422 235.611L36.1991 231.539L24.4873 223.455L4.40702 225.989Z" fill="#121633"/>
</g>
<g style="mix-blend-mode:color-burn" filter="url(#filter1_d_947_2)">
<path d="M306.459 218.656C306.119 218.656 305.778 218.599 305.438 218.485C305.098 218.485 304.757 218.429 304.417 218.315C300.446 217.067 297.61 214.628 295.908 210.998C294.207 207.368 293.356 203 293.356 197.895C293.356 192.563 294.093 186.664 295.568 180.197C297.043 173.731 298.971 167.151 301.354 160.458C303.736 153.651 306.232 147.184 308.841 141.058C311.564 134.819 314.173 129.26 316.669 124.382C319.165 119.39 321.264 115.476 322.965 112.64C321.15 114.228 318.428 116.838 314.797 120.468C311.167 123.985 307.14 128.182 302.715 133.06C298.291 137.939 294.093 143.157 290.123 148.716C286.152 154.275 282.919 159.89 280.423 165.563C279.856 167.038 279.005 169.477 277.87 172.88C276.736 176.17 275.715 179.744 274.807 183.601C274.013 187.458 273.616 190.861 273.616 193.811C273.616 196.08 273.957 197.838 274.637 199.086C274.637 199.2 274.637 199.313 274.637 199.426C274.751 199.426 274.807 199.483 274.807 199.597C274.807 200.731 273.446 201.298 270.723 201.298C265.505 201.298 261.818 199.767 259.662 196.704C257.62 193.527 256.599 189.5 256.599 184.622C256.599 178.836 257.677 172.313 259.833 165.052C262.101 157.678 264.654 150.645 267.49 143.951C269.078 140.207 270.894 136.407 272.936 132.55C274.978 128.579 276.849 125.062 278.551 121.999C280.366 118.823 281.671 116.611 282.465 115.363C278.835 118.653 274.694 122.737 270.043 127.615C265.505 132.38 260.91 137.712 256.259 143.611C251.608 149.397 247.297 155.409 243.326 161.649C239.355 167.775 236.179 173.901 233.797 180.027C231.414 186.04 230.223 191.712 230.223 197.044C230.223 199.54 230.847 201.525 232.095 203C232.322 203.454 232.435 203.681 232.435 203.681C232.435 204.021 231.868 204.191 230.734 204.191C225.175 204.191 220.977 203.227 218.141 201.298C215.418 199.256 214.057 195.966 214.057 191.428C214.057 190.861 214.057 190.294 214.057 189.727C214.17 189.16 214.284 188.536 214.397 187.855C214.738 185.019 215.532 181.275 216.78 176.624C218.141 171.859 219.899 166.584 222.055 160.798C224.324 154.899 226.876 148.886 229.713 142.76C232.662 136.52 235.839 130.565 239.242 124.892C239.582 124.325 240.433 123.02 241.795 120.978C243.269 118.936 244.631 116.781 245.879 114.512C247.24 112.243 247.921 110.598 247.921 109.577C247.921 108.556 247.24 108.329 245.879 108.896C243.95 109.577 241.681 111.052 239.072 113.321C236.463 115.59 233.626 118.199 230.563 121.149C227.5 124.098 224.267 126.991 220.864 129.827C217.574 132.55 214.17 134.876 210.654 136.804C207.25 138.619 203.903 139.527 200.614 139.527C199.819 139.527 198.969 139.47 198.061 139.357C197.267 139.243 196.416 139.016 195.508 138.676C193.58 137.995 192.616 136.294 192.616 133.571C192.616 130.962 193.353 127.899 194.828 124.382C196.416 120.751 198.345 117.291 200.614 114.001C201.181 113.094 201.861 112.47 202.656 112.13C203.45 111.676 204.074 111.449 204.527 111.449C205.435 111.449 205.889 111.846 205.889 112.64C205.889 112.98 205.719 113.434 205.378 114.001C205.265 114.455 205.095 114.852 204.868 115.193C204.754 115.533 204.698 115.817 204.698 116.043C204.698 116.838 205.095 117.405 205.889 117.745C206.683 117.972 207.534 118.085 208.441 118.085C210.824 118.085 213.943 117.291 217.801 115.703C221.658 114.115 225.799 112.186 230.223 109.917C234.761 107.535 239.242 105.209 243.666 102.94C248.204 100.671 252.402 98.913 256.259 97.6651C260.116 96.3038 263.293 95.85 265.788 96.3038C267.717 96.7576 269.419 98.1189 270.894 100.388C272.482 102.657 273.503 104.642 273.957 106.344C274.183 107.024 273.843 108.159 272.936 109.747C272.028 111.335 270.837 113.094 269.362 115.022C268.001 116.951 266.639 118.766 265.278 120.468C263.917 122.17 262.896 123.474 262.215 124.382C260.74 126.197 259.038 128.409 257.11 131.018C255.181 133.628 253.253 136.237 251.324 138.846C249.509 141.342 248.034 143.441 246.9 145.142C246.219 146.277 245.879 147.241 245.879 148.035C245.992 148.716 246.276 148.773 246.729 148.205C249.225 144.916 252.175 141.172 255.578 136.974C259.095 132.663 262.612 128.409 266.129 124.212C269.759 119.901 273.049 116.157 275.999 112.98C279.062 109.69 281.387 107.478 282.976 106.344C283.543 105.89 284.564 105.323 286.039 104.642C287.627 103.848 289.499 103.451 291.654 103.451C292.902 103.451 294.15 103.621 295.398 103.961C296.646 104.302 298.007 104.926 299.482 105.833C301.864 107.308 303.056 109.464 303.056 112.3C303.056 115.93 301.297 120.581 297.78 126.254C294.263 131.926 290.123 138.449 285.358 145.823C287.627 142.873 290.406 139.47 293.696 135.613C297.1 131.642 300.56 127.558 304.077 123.361C307.707 119.05 311.11 115.079 314.287 111.449C317.577 107.705 320.299 104.642 322.455 102.26C324.724 99.7639 326.085 98.3458 326.539 98.0055C328.468 96.6441 329.999 95.9634 331.134 95.9634C332.041 95.9634 333.119 96.247 334.367 96.8143C335.615 97.3815 337.203 98.1756 339.131 99.1967C341.627 100.445 343.386 102.033 344.407 103.961C345.428 105.777 345.938 107.819 345.938 110.087C345.938 113.491 345.144 117.008 343.556 120.638C341.968 124.155 340.436 127.275 338.961 129.997C337.827 131.926 336.125 135.216 333.856 139.867C331.701 144.518 329.318 149.907 326.709 156.033C324.1 162.159 321.547 168.512 319.051 175.092C316.669 181.672 314.684 187.968 313.096 193.981C311.507 199.88 310.713 204.929 310.713 209.126C310.713 210.601 310.827 211.962 311.054 213.21C311.28 214.458 311.677 215.536 312.245 216.443C310.77 217.918 308.841 218.656 306.459 218.656ZM355.425 204.191C348.165 204.191 342.492 203 338.408 200.618C334.324 198.235 332.282 193.641 332.282 186.834C332.282 182.069 333.02 177.078 334.494 171.859C336.083 166.527 338.295 161.365 341.131 156.374C343.967 151.382 347.314 146.844 351.171 142.76C355.028 138.676 359.282 135.443 363.934 133.06C368.585 130.565 373.52 129.317 378.738 129.317C382.142 129.317 385.375 129.6 388.438 130.167C391.501 130.735 393.997 132.039 395.926 134.081C397.854 136.01 398.818 139.073 398.818 143.271C398.818 147.695 397.627 153.424 395.245 160.458C392.862 167.491 389.629 174.355 385.545 181.048C385.318 181.956 385.205 182.863 385.205 183.771C385.205 185.019 385.432 186.267 385.886 187.515C386.453 188.762 387.417 189.386 388.778 189.386C390.594 189.386 392.465 188.139 394.394 185.643C396.436 182.807 398.535 179.403 400.69 175.433C402.846 171.462 404.491 168.229 405.625 165.733C405.852 165.052 406.363 164.712 407.157 164.712C407.951 164.712 408.631 165.052 409.199 165.733C409.879 166.414 409.936 167.208 409.369 168.115C408.461 169.817 407.27 172.199 405.795 175.262C404.321 178.212 402.619 181.218 400.69 184.281C398.762 187.344 396.663 189.784 394.394 191.599C392.692 192.96 390.877 193.641 388.949 193.641C386.68 193.641 384.978 193.13 383.843 192.109C382.709 190.975 381.801 189.386 381.121 187.344C377.49 192.223 373.463 196.25 369.039 199.426C364.614 202.603 360.076 204.191 355.425 204.191ZM352.192 198.916C353.44 198.916 355.142 197.271 357.297 193.981C359.453 190.691 361.778 186.494 364.274 181.388C366.77 176.17 369.209 170.895 371.591 165.563C372.045 164.655 372.782 163.01 373.803 160.628C374.824 158.132 375.902 155.409 377.037 152.46C378.171 149.397 379.135 146.447 379.93 143.611C380.724 140.775 381.121 138.506 381.121 136.804C381.121 134.876 380.554 133.911 379.419 133.911C378.398 133.911 377.093 134.932 375.505 136.974C373.917 138.903 372.159 141.455 370.23 144.632C368.301 147.808 366.429 151.212 364.614 154.842C362.799 158.472 361.211 161.876 359.85 165.052C358.488 168.229 357.07 171.802 355.595 175.773C354.121 179.744 352.873 183.544 351.852 187.174C350.944 190.691 350.49 193.527 350.49 195.683C350.49 197.838 351.057 198.916 352.192 198.916ZM440.216 204.361C434.43 204.361 430.516 202.773 428.474 199.597C426.432 196.42 425.411 192.733 425.411 188.536C425.411 185.473 425.752 182.409 426.432 179.346C427.113 176.283 427.85 173.561 428.645 171.178C429.439 168.796 430.006 167.151 430.346 166.243C431.708 162.159 433.126 158.245 434.6 154.502C436.189 150.645 437.38 147.979 438.174 146.504C437.834 147.071 436.586 148.716 434.43 151.439C432.275 154.161 429.722 157.565 426.773 161.649C423.937 165.619 421.1 169.874 418.264 174.412C415.428 178.836 413.046 183.147 411.117 187.344C409.302 191.428 408.394 194.945 408.394 197.895C408.394 199.937 408.848 201.412 409.756 202.319C410.096 202.66 410.266 202.943 410.266 203.17C410.266 203.737 409.642 203.908 408.394 203.681C405.785 203.227 403.233 202.773 400.737 202.319C398.241 201.752 396.142 200.674 394.441 199.086C392.852 197.384 392.058 194.605 392.058 190.748C392.058 187.685 392.852 183.998 394.441 179.687C396.029 175.262 397.901 170.725 400.056 166.073C402.212 161.422 404.083 157.111 405.672 153.14C406.012 152.233 406.579 150.871 407.373 149.056C408.168 147.128 408.962 145.142 409.756 143.1C410.663 140.945 411.344 139.073 411.798 137.485C412.252 135.783 412.365 134.649 412.138 134.081C411.911 133.628 411.798 133.287 411.798 133.06C411.798 131.699 412.705 131.018 414.521 131.018C416.336 131.018 418.151 131.302 419.966 131.869C421.895 132.323 423.596 133.117 425.071 134.252C426.659 135.386 427.907 136.747 428.815 138.336C429.722 139.924 430.176 141.682 430.176 143.611C430.176 144.859 429.892 146.334 429.325 148.035C429.098 148.829 428.588 149.907 427.794 151.268C427.113 152.516 426.376 153.878 425.582 155.353C424.787 156.827 423.937 158.359 423.029 159.947C422.235 161.535 421.951 162.386 422.178 162.5C425.014 157.508 428.077 152.857 431.367 148.546C434.771 144.121 437.834 140.321 440.556 137.144C443.393 133.968 445.264 131.642 446.172 130.167C447.08 129.487 448.554 129.146 450.596 129.146C452.979 129.146 455.418 129.884 457.914 131.359C460.41 132.833 461.657 135.499 461.657 139.357C461.657 142.533 460.523 146.39 458.254 150.928C453.376 160.231 449.632 168.626 447.023 176.113C444.414 183.487 443.109 188.933 443.109 192.449C443.109 194.945 443.79 196.193 445.151 196.193C446.739 196.193 448.554 195.172 450.596 193.13C452.638 191.088 454.567 188.649 456.382 185.813C458.878 182.183 461.147 178.325 463.189 174.241C465.344 170.157 466.819 167.321 467.613 165.733C467.954 165.052 468.464 164.712 469.145 164.712C469.826 164.712 470.45 165.109 471.017 165.903C471.697 166.584 471.811 167.378 471.357 168.285C470.563 169.874 469.372 172.086 467.784 174.922C466.309 177.758 464.607 180.821 462.678 184.111C460.75 187.288 458.651 190.351 456.382 193.3C453.886 196.704 451.391 199.426 448.895 201.468C446.399 203.397 443.506 204.361 440.216 204.361ZM472.983 204.361C468.899 204.361 465.212 203.227 461.922 200.958C458.632 198.576 456.987 194.775 456.987 189.557C456.987 185.473 457.781 180.481 459.369 174.582C460.958 168.682 463.056 162.67 465.666 156.544C468.275 150.304 471.111 144.689 474.174 139.697H466.857C466.176 139.697 465.836 139.413 465.836 138.846C465.836 138.392 466.12 137.882 466.687 137.315C467.254 136.634 467.935 136.18 468.729 135.953C470.544 135.386 472.87 134.365 475.706 132.89C478.655 131.302 481.718 129.487 484.895 127.445C488.071 125.403 491.078 123.361 493.914 121.319C496.75 119.277 499.019 117.518 500.721 116.043C501.742 115.136 502.819 114.512 503.954 114.172C505.202 113.831 506.393 113.661 507.527 113.661C509.456 113.661 510.931 114.001 511.952 114.682C512.973 115.363 512.973 116.043 511.952 116.724C511.044 117.291 509.796 118.709 508.208 120.978C506.62 123.247 504.975 125.743 503.273 128.466C501.685 131.189 500.267 133.628 499.019 135.783H511.952C512.179 135.783 512.292 135.953 512.292 136.294C512.292 136.861 512.065 137.598 511.611 138.506C511.158 139.3 510.704 139.697 510.25 139.697H496.807C494.538 143.668 492.042 148.205 489.319 153.311C486.597 158.416 483.987 163.634 481.491 168.966C479.109 174.185 477.124 179.063 475.536 183.601C473.947 188.025 473.153 191.542 473.153 194.151C473.153 196.987 474.458 198.405 477.067 198.405C479.79 198.405 482.853 197.101 486.256 194.492C489.092 192.109 491.758 189.16 494.254 185.643C496.637 182.353 498.735 178.949 500.55 175.433C502.479 171.916 504.067 168.909 505.315 166.414C505.769 165.619 506.393 165.222 507.187 165.222C507.981 165.222 508.605 165.563 509.059 166.243C509.626 166.811 509.683 167.548 509.229 168.456C507.527 171.859 505.372 175.83 502.763 180.367C500.153 184.905 497.374 189.046 494.424 192.79C492.042 195.739 489.716 198.008 487.447 199.597C485.292 201.071 482.966 202.206 480.47 203C478.088 203.908 475.592 204.361 472.983 204.361ZM511.766 204.021C510.177 204.021 508.646 203.851 507.171 203.511C505.81 203.284 504.165 202.773 502.236 201.979C499.74 200.958 497.925 199.2 496.791 196.704C495.656 194.094 495.089 191.031 495.089 187.515C495.089 183.317 495.77 178.666 497.131 173.561C498.606 168.456 500.478 163.294 502.747 158.075C505.356 152.29 508.306 146.22 511.596 139.867C514.999 133.514 518.686 127.728 522.657 122.51C526.741 117.291 530.995 113.548 535.419 111.279C536.667 110.598 538.085 110.144 539.673 109.917C541.262 109.577 542.85 109.407 544.438 109.407C547.501 109.407 550.394 109.861 553.117 110.768C554.138 111.109 554.648 111.562 554.648 112.13C554.648 112.47 554.308 112.924 553.627 113.491C552.833 114.058 550.281 116.724 545.97 121.489C541.772 126.14 537.064 133.06 531.846 142.25C531.278 143.271 530.484 144.689 529.463 146.504C528.556 148.205 527.591 149.964 526.57 151.779C525.663 153.594 524.869 155.182 524.188 156.544C523.507 157.792 523.167 158.416 523.167 158.416C526.117 154.105 529.18 150.021 532.356 146.163C535.646 142.306 538.596 138.96 541.205 136.123C543.814 133.174 545.629 131.189 546.65 130.167C547.558 129.487 549.033 129.146 551.075 129.146C553.457 129.146 555.896 129.884 558.392 131.359C560.888 132.833 562.136 135.499 562.136 139.357C562.136 141.626 561.512 144.348 560.264 147.525C559.016 150.701 557.598 153.878 556.01 157.054C554.421 160.117 553.117 162.783 552.096 165.052C551.869 165.619 551.245 166.981 550.224 169.136C549.203 171.292 548.125 173.788 546.991 176.624C545.856 179.46 544.835 182.296 543.928 185.132C543.134 187.855 542.737 190.124 542.737 191.939C542.737 194.208 543.474 195.342 544.949 195.342C545.97 195.342 547.218 194.718 548.692 193.471C550.167 192.109 551.529 190.691 552.777 189.216C554.138 187.628 555.102 186.437 555.669 185.643C558.052 182.353 560.207 178.836 562.136 175.092C564.178 171.348 565.823 168.229 567.071 165.733C567.525 164.939 568.092 164.542 568.772 164.542C569.567 164.542 570.247 164.882 570.814 165.563C571.382 166.243 571.438 167.038 570.985 167.945C569.169 171.575 566.901 175.716 564.178 180.367C561.569 184.905 558.789 189.046 555.84 192.79C553.571 195.626 550.961 198.179 548.012 200.447C545.062 202.603 541.942 203.681 538.652 203.681C533.888 203.681 530.541 202.206 528.612 199.256C526.797 196.307 525.89 192.449 525.89 187.685C525.89 183.941 526.4 180.197 527.421 176.454C528.556 172.71 529.804 168.966 531.165 165.222C532.64 161.138 534.058 157.451 535.419 154.161C536.894 150.871 538.028 148.659 538.823 147.525C536.44 149.226 533.718 151.892 530.654 155.523C527.705 159.04 524.869 163.124 522.146 167.775C519.423 172.426 517.154 177.134 515.339 181.899C513.524 186.664 512.617 191.088 512.617 195.172C512.617 198.008 513.24 200.164 514.488 201.639C514.829 201.979 514.999 202.319 514.999 202.66C514.999 203.567 513.921 204.021 511.766 204.021ZM576.877 204.191C569.957 204.191 564.227 202.149 559.69 198.065C555.152 193.981 552.883 188.309 552.883 181.048C552.883 178.552 553.166 175.943 553.734 173.22C554.301 170.498 555.209 168.172 556.456 166.243C557.704 164.315 559.349 163.351 561.391 163.351C562.639 163.351 563.547 163.748 564.114 164.542C565.475 161.932 566.95 159.323 568.538 156.714C570.127 154.105 571.715 151.439 573.303 148.716C575.118 145.766 577.217 142.533 579.599 139.016C582.095 135.386 584.931 132.21 588.108 129.487C591.284 126.651 594.745 125.062 598.488 124.722C598.942 124.609 599.396 124.552 599.85 124.552C600.417 124.552 600.927 124.552 601.381 124.552C602.629 124.552 603.934 124.609 605.295 124.722C606.656 124.836 607.677 124.949 608.358 125.062C608.585 125.176 608.755 125.516 608.869 126.083C608.982 126.651 608.698 126.934 608.018 126.934C607.564 126.934 606.656 127.275 605.295 127.955C603.934 128.523 603.14 129.941 602.913 132.21C602.686 140.151 602.175 148.092 601.381 156.033C600.7 163.974 599.623 170.611 598.148 175.943C597.467 178.666 596.39 181.615 594.915 184.792C593.44 187.968 591.681 190.805 589.639 193.3C587.597 195.796 585.442 197.498 583.173 198.405C585.442 198.405 587.824 197.725 590.32 196.363C592.929 194.889 595.312 193.13 597.467 191.088C599.736 189.046 601.438 187.231 602.572 185.643C605.068 182.126 607.337 178.439 609.379 174.582C611.535 170.611 613.123 167.548 614.144 165.393C614.484 164.825 614.881 164.542 615.335 164.542C615.902 164.542 616.413 164.882 616.867 165.563C617.32 166.243 617.547 166.981 617.547 167.775C617.547 168.002 617.491 168.229 617.377 168.456C617.377 168.682 617.32 168.909 617.207 169.136C615.165 173.22 612.896 177.361 610.4 181.559C608.018 185.643 605.238 189.443 602.062 192.96C598.885 196.363 595.255 199.086 591.171 201.128C587.087 203.17 582.322 204.191 576.877 204.191ZM565.816 193.471C567.064 193.471 568.312 193.073 569.559 192.279C570.807 191.485 571.828 190.237 572.623 188.536C574.324 184.792 575.856 180.481 577.217 175.603C578.578 170.725 579.77 165.903 580.791 161.138C581.812 156.26 582.663 151.949 583.343 148.205C584.137 144.348 584.705 141.569 585.045 139.867C583.343 141.909 581.244 144.802 578.749 148.546C576.366 152.29 574.041 156.033 571.772 159.777C569.616 163.521 567.971 166.527 566.837 168.796C566.95 171.405 565.929 173.731 563.774 175.773C561.618 177.815 559.746 179.914 558.158 182.069V183.941C558.158 184.395 558.158 184.962 558.158 185.643C558.272 186.323 558.385 186.947 558.498 187.515C559.066 189.33 560.03 190.805 561.391 191.939C562.866 192.96 564.341 193.471 565.816 193.471ZM219.673 320.702C215.362 320.702 211.278 319.908 207.42 318.319C203.677 316.731 200.614 314.235 198.231 310.832C195.849 307.315 194.487 302.891 194.147 297.559C194.034 296.878 193.977 296.197 193.977 295.517C193.977 294.836 193.977 294.155 193.977 293.475C193.977 285.987 195.168 278.103 197.551 269.821C200.046 261.539 203.506 253.655 207.931 246.167C212.355 238.567 217.574 232.1 223.586 226.768C228.578 222.344 233.74 218.997 239.072 216.728C244.404 214.459 250.53 213.325 257.45 213.325C260.854 213.325 263.973 213.722 266.809 214.516C269.759 215.197 271.858 216.218 273.106 217.579C273.673 218.146 273.957 218.997 273.957 220.132C273.957 220.812 273.786 221.493 273.446 222.174C273.219 222.741 272.822 223.024 272.255 223.024C271.688 223.024 271.12 222.741 270.553 222.174C268.625 220.585 266.639 219.791 264.597 219.791C261.421 219.791 258.188 221.209 254.898 224.045C251.608 226.768 248.545 229.718 245.708 232.894C242.532 236.751 239.299 241.573 236.009 247.359C232.832 253.031 229.939 258.76 227.33 264.546C225.742 268.063 223.983 272.374 222.055 277.479C220.126 282.47 218.481 287.519 217.12 292.624C215.759 297.615 215.078 301.983 215.078 305.727C215.078 308.336 215.475 310.435 216.269 312.023C217.177 313.611 218.708 314.405 220.864 314.405C225.515 314.405 230.847 310.889 236.86 303.855C242.986 296.708 249.282 286.327 255.748 272.714C258.358 267.042 260.286 261.539 261.534 256.207C262.782 250.762 263.406 245.884 263.406 241.573C263.406 235.106 262.272 230.569 260.003 227.959C259.435 227.165 259.152 226.655 259.152 226.428C259.152 225.634 259.833 225.237 261.194 225.237C262.215 225.237 263.236 225.464 264.257 225.917C268.681 227.846 271.744 230.852 273.446 234.936C275.261 238.907 276.169 243.275 276.169 248.039C276.169 253.258 275.431 258.533 273.957 263.865C272.482 269.197 270.894 273.678 269.192 277.308C266.242 283.775 262.555 290.241 258.131 296.708C253.706 303.174 248.828 308.449 243.496 312.534C240.206 315.143 236.463 317.185 232.265 318.66C228.068 320.021 223.87 320.702 219.673 320.702ZM287.183 320.191C282.532 320.191 278.845 319.511 276.122 318.149C273.513 316.788 271.584 314.802 270.336 312.193C269.202 309.584 268.635 306.521 268.635 303.004C268.635 296.991 269.996 290.185 272.719 282.584C275.555 274.983 278.845 267.722 282.589 260.802C284.063 258.079 285.822 254.903 287.864 251.273C290.019 247.529 292.402 243.842 295.011 240.212C297.734 236.581 300.57 233.462 303.52 230.852C306.583 228.13 309.702 226.485 312.879 225.917C314.807 225.577 316.679 225.407 318.494 225.407C321.444 225.407 323.656 225.69 325.131 226.258C327.74 227.279 329.045 228.3 329.045 229.321C329.045 230.001 328.478 230.342 327.343 230.342C326.889 230.342 326.266 230.625 325.471 231.193C324.677 231.646 323.94 232.214 323.259 232.894C318.268 237.886 312.765 245.317 306.753 255.186C301.875 263.128 297.79 270.955 294.501 278.67C291.211 286.271 288.772 294.099 287.183 302.153C286.843 304.195 286.673 305.897 286.673 307.258C286.673 309.641 287.07 311.342 287.864 312.363C288.658 313.384 289.622 313.895 290.757 313.895C293.026 313.895 295.635 312.59 298.585 309.981C301.648 307.372 304.087 304.536 305.902 301.473C308.284 298.183 310.383 294.779 312.198 291.262C314.127 287.632 315.715 284.569 316.963 282.073C317.417 281.279 318.041 280.882 318.835 280.882C319.515 280.882 320.139 281.222 320.707 281.903C321.274 282.584 321.331 283.378 320.877 284.285C319.175 287.689 317.02 291.716 314.41 296.367C311.915 301.019 309.135 305.16 306.072 308.79C303.236 312.193 300.173 314.973 296.883 317.128C293.706 319.17 290.473 320.191 287.183 320.191ZM353.509 320.191C351.127 320.191 349.028 319.737 347.213 318.83C344.377 317.468 342.222 315.086 340.747 311.683C339.385 308.279 338.875 304.592 339.215 300.622L337.514 303.855C335.812 307.145 333.429 310.492 330.366 313.895C327.53 317.071 324.978 318.887 322.709 319.34C320.44 319.794 318.398 319.964 316.583 319.851C312.612 319.511 309.719 317.639 307.904 314.235C306.089 310.718 305.181 306.691 305.181 302.153C305.181 297.048 306.032 292.057 307.734 287.178C309.549 282.187 311.818 277.025 314.541 271.693C320.1 261.256 325.772 254.222 331.558 250.592C337.343 246.848 343.299 245.146 349.425 245.487C350.673 245.6 352.318 245.884 354.36 246.338C356.402 246.678 358.217 247.075 359.806 247.529C361.848 244.239 364.117 241.006 366.612 237.829C369.108 234.653 371.718 231.93 374.44 229.661C377.276 227.392 380.113 226.031 382.949 225.577C384.877 225.237 386.749 225.066 388.564 225.066C391.514 225.066 393.726 225.35 395.201 225.917C397.81 226.938 399.115 227.959 399.115 228.98C399.115 229.661 398.548 230.001 397.413 230.001C396.959 230.001 396.335 230.285 395.541 230.852C394.747 231.306 394.01 231.873 393.329 232.554C390.266 235.617 386.806 239.928 382.949 245.487C379.092 251.046 375.348 257.228 371.718 264.035C368.087 270.842 364.911 277.706 362.188 284.626C361.054 287.575 359.976 291.149 358.955 295.346C357.934 299.544 357.423 303.174 357.423 306.237C357.423 308.052 357.65 309.527 358.104 310.662C358.558 311.683 359.295 312.193 360.316 312.193C361.904 312.193 363.663 311.172 365.591 309.13C367.52 306.975 369.449 304.479 371.377 301.643C373.987 298.012 376.199 294.325 378.014 290.582C379.942 286.838 381.417 284.002 382.438 282.073C382.665 281.393 383.232 281.052 384.14 281.052C384.934 281.052 385.615 281.393 386.182 282.073C386.749 282.754 386.749 283.548 386.182 284.456C384.027 288.653 381.758 293.021 379.375 297.559C376.993 301.983 374.327 306.124 371.377 309.981C369.335 312.704 366.726 315.086 363.549 317.128C360.373 319.17 357.026 320.191 353.509 320.191ZM325.261 311.683C326.509 311.683 328.211 310.265 330.366 307.428C332.635 304.479 334.621 301.246 336.322 297.729C336.663 297.048 337.343 295.517 338.364 293.134C339.499 290.638 340.803 287.632 342.278 284.115C343.867 280.598 345.455 276.911 347.043 273.054C348.745 269.197 350.333 265.51 351.808 261.993C353.283 258.476 354.474 255.527 355.381 253.144C355.495 252.918 355.551 252.577 355.551 252.123C355.551 251.102 354.814 250.592 353.339 250.592C352.545 250.592 351.638 250.762 350.617 251.102C349.709 251.443 348.915 251.897 348.234 252.464C346.419 253.939 344.15 256.718 341.427 260.802C338.705 264.886 335.982 269.708 333.259 275.266C330.537 280.712 328.268 286.327 326.453 292.113C324.637 297.786 323.73 303.004 323.73 307.769C323.73 310.378 324.24 311.683 325.261 311.683Z" fill="#121633"/>
</g>
<defs>
<filter id="filter0_d_947_2" x="46.9785" y="93.213" width="197.454" height="261.212" filterUnits="userSpaceOnUse" color-interpolation-filters="sRGB">
<feFlood flood-opacity="0" result="BackgroundImageFix"/>
<feColorMatrix in="SourceAlpha" type="matrix" values="0 0 0 0 0 0 0 0 0 0 0 0 0 0 0 0 0 0 127 0" result="hardAlpha"/>
<feOffset dx="-2.14585" dy="10.7292"/>
<feGaussianBlur stdDeviation="7.83235"/>
<feComposite in2="hardAlpha" operator="out"/>
<feColorMatrix type="matrix" values="0 0 0 0 0 0 0 0 0 0 0 0 0 0 0 0 0 0 0.34 0"/>
<feBlend mode="normal" in2="BackgroundImageFix" result="effect1_dropShadow_947_2"/>
<feBlend mode="normal" in="SourceGraphic" in2="effect1_dropShadow_947_2" result="shape"/>
</filter>
<filter id="filter1_d_947_2" x="183.798" y="93.1811" width="440.443" height="240.592" filterUnits="userSpaceOnUse" color-interpolation-filters="sRGB">
<feFlood flood-opacity="0" result="BackgroundImageFix"/>
<feColorMatrix in="SourceAlpha" type="matrix" values="0 0 0 0 0 0 0 0 0 0 0 0 0 0 0 0 0 0 127 0" result="hardAlpha"/>
<feOffset dx="-1.06257" dy="5.31285"/>
<feGaussianBlur stdDeviation="3.87838"/>
<feComposite in2="hardAlpha" operator="out"/>
<feColorMatrix type="matrix" values="0 0 0 0 0 0 0 0 0 0 0 0 0 0 0 0 0 0 0.34 0"/>
<feBlend mode="normal" in2="BackgroundImageFix" result="effect1_dropShadow_947_2"/>
<feBlend mode="normal" in="SourceGraphic" in2="effect1_dropShadow_947_2" result="shape"/>
</filter>
</defs>
</svg>
